<svg xmlns="http://www.w3.org/2000/svg" width="40" height="40"><path fill="#FFF" d="M20 0C8.954 0 0 8.954 0 20s8.954 20 20 20 20-8.954 20-20S31.046 0 20 0zm4.975 15.619c2.491 0 4.358 1.729 4.358 5.445V28H25.55v-6.472c0-1.626-.548-2.735-1.918-2.735-1.046 0-1.668.748-1.942 1.47-.1.26-.125.62-.125.981V28h-3.786v-.042c.003-.742.049-10.96 0-12.055h3.785v1.715c.503-.823 1.402-1.999 3.412-1.999zm-9.508 0V28H12V15.619h3.467zm-1.723-4.952c1.054 0 1.702.748 1.723 1.732 0 .963-.669 1.734-1.743 1.734h-.021c-1.033 0-1.703-.77-1.703-1.734 0-.984.69-1.732 1.744-1.732z"/></svg>