<svg xmlns="http://www.w3.org/2000/svg" width="48" height="24"><path fill="#FFF" fill-rule="evenodd" d="M19.442.166l.059.01c-2.715 1.342-1.428 6.288-1.448 7.875-.004.343-.05.667-.139.971-.117.45-.465.944-1.131 1.56L.942 23.986l7.59-11.881 3.084-1.668L.25 12.901s7.253-5.04 10.322-6.941c.877-.543 1.323-.438 2.11-.351l1.448-2.311-2.395.196L16.741.416a2.34 2.34 0 01.551-.279c.721-.245 1.328-.115 2.15.029zm6.474 7.877c2.55 0 4.474 2.043 4.474 4.751s-1.923 4.75-4.474 4.75c-1.263 0-2.3-.448-2.974-1.274v5.126h-2.064V8.274h2.064v1.044c.674-.826 1.71-1.275 2.974-1.275zm16.429 0c2.735 0 4.798 2.039 4.798 4.742s-2.063 4.741-4.798 4.741c-2.736 0-4.8-2.038-4.8-4.741s2.064-4.742 4.8-4.742zm-9.084.255v9.016h-2.057V8.298h2.057zm3.47 0v9.016h-2.056V8.298h2.056zm-11.08 1.579c-1.62 0-2.71 1.172-2.71 2.917 0 1.745 1.09 2.917 2.71 2.917 1.563 0 2.741-1.254 2.741-2.917 0-1.663-1.178-2.917-2.741-2.917zm16.694.013c-1.625 0-2.804 1.217-2.804 2.895s1.179 2.895 2.804 2.895c1.625 0 2.804-1.217 2.804-2.895s-1.18-2.895-2.804-2.895zM32.203 4.556c.725 0 1.272.567 1.272 1.319 0 .751-.547 1.318-1.272 1.318-.716 0-1.256-.567-1.256-1.318 0-.752.54-1.319 1.256-1.319zm3.47.043c.726 0 1.273.548 1.273 1.276 0 .727-.547 1.275-1.272 1.275-.716 0-1.256-.548-1.256-1.275 0-.728.54-1.276 1.256-1.276z"/></svg>